<svg xmlns="http://www.w3.org/2000/svg" viewBox="0 0 24 24" shape-rendering="crispEdges" width="512" height="512">
  <rect x="11" y="1" width="2" height="1" fill="#FFD93D"/>
  <rect x="10" y="2" width="4" height="1" fill="#7A4AB5"/>
  <rect x="10" y="3" width="4" height="1" fill="#7A4AB5"/>
  <rect x="9" y="4" width="1" height="1" fill="#FFD93D"/>
  <rect x="14" y="4" width="1" height="1" fill="#FFD93D"/>
  <rect x="9" y="4" width="6" height="1" fill="#9359C9"/>
  <rect x="9" y="5" width="6" height="1" fill="#9359C9"/>
  <rect x="8" y="6" width="8" height="1" fill="#A878E0"/>
  <rect x="7" y="7" width="10" height="1" fill="#7A4AB5"/>
  <rect x="11" y="6" width="2" height="1" fill="#FFD93D"/>
  <rect x="9" y="8" width="6" height="1" fill="#F4C7A1"/>
  <rect x="9" y="9" width="6" height="1" fill="#F4C7A1"/>
  <rect x="10" y="9" width="1" height="1" fill="#00D9FF"/>
  <rect x="13" y="9" width="1" height="1" fill="#00D9FF"/>
  <rect x="8" y="10" width="8" height="1" fill="#E8E8E8"/>
  <rect x="8" y="11" width="8" height="1" fill="#FFFFFF"/>
  <rect x="9" y="12" width="6" height="1" fill="#FFFFFF"/>
  <rect x="9" y="13" width="6" height="1" fill="#E8E8E8"/>
  <rect x="10" y="14" width="4" height="1" fill="#FFFFFF"/>
  <rect x="11" y="15" width="2" height="1" fill="#E8E8E8"/>
  <rect x="6" y="12" width="2" height="1" fill="#7A4AB5"/>
  <rect x="16" y="12" width="2" height="1" fill="#7A4AB5"/>
  <rect x="5" y="13" width="3" height="1" fill="#9359C9"/>
  <rect x="16" y="13" width="3" height="1" fill="#9359C9"/>
  <rect x="5" y="14" width="3" height="1" fill="#7A4AB5"/>
  <rect x="16" y="14" width="3" height="1" fill="#7A4AB5"/>
  <rect x="5" y="15" width="11" height="1" fill="#7A4AB5"/>
  <rect x="4" y="16" width="13" height="1" fill="#9359C9"/>
  <rect x="4" y="17" width="13" height="1" fill="#7A4AB5"/>
  <rect x="3" y="18" width="15" height="1" fill="#7A4AB5"/>
  <rect x="3" y="19" width="15" height="1" fill="#5B2C8A"/>
  <rect x="5" y="17" width="11" height="1" fill="#FFD93D"/>
  <rect x="18" y="5" width="1" height="1" fill="#00D9FF"/>
  <rect x="17" y="6" width="3" height="1" fill="#00D9FF"/>
  <rect x="18" y="7" width="1" height="1" fill="#00D9FF"/>
  <rect x="18" y="8" width="1" height="1" fill="#A0522D"/>
  <rect x="18" y="9" width="1" height="1" fill="#C97A4F"/>
  <rect x="18" y="10" width="1" height="1" fill="#A0522D"/>
  <rect x="18" y="11" width="1" height="1" fill="#C97A4F"/>
  <rect x="18" y="12" width="1" height="1" fill="#A0522D"/>
  <rect x="18" y="13" width="1" height="1" fill="#C97A4F"/>
  <rect x="18" y="14" width="1" height="1" fill="#A0522D"/>
  <rect x="20" y="4" width="1" height="1" fill="#FFD93D"/>
  <rect x="16" y="4" width="1" height="1" fill="#FFD93D"/>
  <rect x="21" y="7" width="1" height="1" fill="#00D9FF"/>
  <rect x="2" y="10" width="1" height="1" fill="#FFD93D"/>
  <rect x="1" y="14" width="1" height="1" fill="#00D9FF"/>
  <rect x="22" y="12" width="1" height="1" fill="#FFD93D"/>
  <rect x="2" y="20" width="1" height="1" fill="#00D9FF"/>
</svg>
