<svg xmlns="http://www.w3.org/2000/svg" viewBox="0 0 140 48" shape-rendering="crispEdges" width="560" height="192">
  <!-- Wizard icon (Option 1 - wizard with staff) scaled 2x - brightened for dark backgrounds -->
  <g transform="scale(2)">
    <rect x="11" y="1" width="2" height="1" fill="#FFD93D"/>
    <rect x="10" y="2" width="4" height="1" fill="#7A4AB5"/>
    <rect x="10" y="3" width="4" height="1" fill="#7A4AB5"/>
    <rect x="9" y="4" width="1" height="1" fill="#FFD93D"/>
    <rect x="14" y="4" width="1" height="1" fill="#FFD93D"/>
    <rect x="9" y="4" width="6" height="1" fill="#9359C9"/>
    <rect x="9" y="5" width="6" height="1" fill="#9359C9"/>
    <rect x="8" y="6" width="8" height="1" fill="#A878E0"/>
    <rect x="7" y="7" width="10" height="1" fill="#7A4AB5"/>
    <rect x="11" y="6" width="2" height="1" fill="#FFD93D"/>
    <rect x="9" y="8" width="6" height="1" fill="#F4C7A1"/>
    <rect x="9" y="9" width="6" height="1" fill="#F4C7A1"/>
    <rect x="10" y="9" width="1" height="1" fill="#00D9FF"/>
    <rect x="13" y="9" width="1" height="1" fill="#00D9FF"/>
    <rect x="8" y="10" width="8" height="1" fill="#E8E8E8"/>
    <rect x="8" y="11" width="8" height="1" fill="#FFFFFF"/>
    <rect x="9" y="12" width="6" height="1" fill="#FFFFFF"/>
    <rect x="9" y="13" width="6" height="1" fill="#E8E8E8"/>
    <rect x="10" y="14" width="4" height="1" fill="#FFFFFF"/>
    <rect x="11" y="15" width="2" height="1" fill="#E8E8E8"/>
    <rect x="6" y="12" width="2" height="1" fill="#7A4AB5"/>
    <rect x="16" y="12" width="2" height="1" fill="#7A4AB5"/>
    <rect x="5" y="13" width="3" height="1" fill="#9359C9"/>
    <rect x="16" y="13" width="3" height="1" fill="#9359C9"/>
    <rect x="5" y="14" width="3" height="1" fill="#7A4AB5"/>
    <rect x="16" y="14" width="3" height="1" fill="#7A4AB5"/>
    <rect x="5" y="15" width="11" height="1" fill="#7A4AB5"/>
    <rect x="4" y="16" width="13" height="1" fill="#9359C9"/>
    <rect x="4" y="17" width="13" height="1" fill="#7A4AB5"/>
    <rect x="3" y="18" width="15" height="1" fill="#7A4AB5"/>
    <rect x="3" y="19" width="15" height="1" fill="#5B2C8A"/>
    <rect x="5" y="17" width="11" height="1" fill="#FFD93D"/>
    <rect x="18" y="5" width="1" height="1" fill="#00D9FF"/>
    <rect x="17" y="6" width="3" height="1" fill="#00D9FF"/>
    <rect x="18" y="7" width="1" height="1" fill="#00D9FF"/>
    <rect x="18" y="8" width="1" height="1" fill="#A0522D"/>
    <rect x="18" y="9" width="1" height="1" fill="#C97A4F"/>
    <rect x="18" y="10" width="1" height="1" fill="#A0522D"/>
    <rect x="18" y="11" width="1" height="1" fill="#C97A4F"/>
    <rect x="18" y="12" width="1" height="1" fill="#A0522D"/>
    <rect x="18" y="13" width="1" height="1" fill="#C97A4F"/>
    <rect x="18" y="14" width="1" height="1" fill="#A0522D"/>
    <rect x="20" y="4" width="1" height="1" fill="#FFD93D"/>
    <rect x="16" y="4" width="1" height="1" fill="#FFD93D"/>
    <rect x="21" y="7" width="1" height="1" fill="#00D9FF"/>
    <rect x="2" y="10" width="1" height="1" fill="#FFD93D"/>
    <rect x="1" y="14" width="1" height="1" fill="#00D9FF"/>
    <rect x="22" y="12" width="1" height="1" fill="#FFD93D"/>
    <rect x="2" y="20" width="1" height="1" fill="#00D9FF"/>
  </g>

  <!-- AUGUR text - light purple for dark backgrounds -->
  <g fill="#C9A8F0">
    <rect x="60" y="14" width="2" height="20"/>
    <rect x="62" y="12" width="2" height="2"/>
    <rect x="64" y="10" width="2" height="2"/>
    <rect x="66" y="12" width="2" height="2"/>
    <rect x="68" y="14" width="2" height="20"/>
    <rect x="62" y="22" width="6" height="2"/>
    <rect x="76" y="10" width="2" height="20"/>
    <rect x="84" y="10" width="2" height="20"/>
    <rect x="78" y="30" width="6" height="2"/>
    <rect x="77" y="32" width="8" height="2"/>
    <rect x="94" y="12" width="2" height="20"/>
    <rect x="96" y="10" width="6" height="2"/>
    <rect x="96" y="32" width="6" height="2"/>
    <rect x="102" y="12" width="2" height="2"/>
    <rect x="102" y="22" width="2" height="12"/>
    <rect x="98" y="22" width="6" height="2"/>
    <rect x="110" y="10" width="2" height="20"/>
    <rect x="118" y="10" width="2" height="20"/>
    <rect x="112" y="30" width="6" height="2"/>
    <rect x="111" y="32" width="8" height="2"/>
    <rect x="128" y="10" width="2" height="24"/>
    <rect x="130" y="10" width="6" height="2"/>
    <rect x="136" y="12" width="2" height="8"/>
    <rect x="130" y="20" width="6" height="2"/>
    <rect x="134" y="22" width="2" height="4"/>
    <rect x="136" y="26" width="2" height="8"/>
  </g>
</svg>
